<svg id="visual" viewBox="0 0 960 540" width="960" height="540" xmlns="http://www.w3.org/2000/svg" xmlns:xlink="http://www.w3.org/1999/xlink" version="1.1"><g transform="translate(485.4540513255225 272.0855755515131)"><path d="M120.7 -210.5C151.5 -191.4 168 -148.9 186.6 -110C205.3 -71 226.2 -35.5 229.2 1.7C232.2 39 217.4 78 193.1 107.2C168.9 136.5 135.1 155.9 101.3 173.9C67.5 191.9 33.8 208.5 -4.5 216.3C-42.8 224.2 -85.7 223.4 -117.1 204C-148.6 184.7 -168.7 146.9 -189.8 109.8C-210.9 72.7 -232.9 36.3 -238.8 -3.4C-244.8 -43.2 -234.5 -86.3 -213.4 -123.3C-192.2 -160.2 -160.1 -191 -122.7 -206.2C-85.3 -221.5 -42.7 -221.2 1.2 -223.3C45 -225.3 90 -229.6 120.7 -210.5" fill="#f9e6ac"></path></g></svg>